<svg id="visual" viewBox="0 0 900 600" width="900" height="600" xmlns="http://www.w3.org/2000/svg" xmlns:xlink="http://www.w3.org/1999/xlink" version="1.1"><rect x="0" y="0" width="900" height="600" fill="#231f20"></rect><defs><linearGradient id="grad1_0" x1="33.3%" y1="0%" x2="100%" y2="100%"><stop offset="20%" stop-color="#231f20" stop-opacity="1"></stop><stop offset="80%" stop-color="#231f20" stop-opacity="1"></stop></linearGradient></defs><defs><linearGradient id="grad2_0" x1="0%" y1="0%" x2="66.7%" y2="100%"><stop offset="20%" stop-color="#231f20" stop-opacity="1"></stop><stop offset="80%" stop-color="#231f20" stop-opacity="1"></stop></linearGradient></defs><g transform="translate(900, 0)"><path d="M0 486.7C-70.6 486.3 -141.1 485.8 -186.3 449.7C-231.4 413.6 -251.1 342 -296.3 296.3C-341.4 250.5 -412.1 230.7 -448.1 185.6C-484.1 140.5 -485.4 70.3 -486.7 0L0 0Z" fill="#302b2c"></path></g><g transform="translate(0, 600)"><path d="M0 -486.7C55.8 -457.6 111.6 -428.4 168 -405.6C224.4 -382.7 281.5 -366.2 331.6 -331.6C381.8 -297.1 425 -244.5 449.7 -186.3C474.4 -128 480.6 -64 486.7 0L0 0Z" fill="#302b2c"></path></g></svg>