<svg id="visual" viewBox="0 0 900 600" width="900" height="600" xmlns="http://www.w3.org/2000/svg" xmlns:xlink="http://www.w3.org/1999/xlink" version="1.1"><rect x="0" y="0" width="900" height="600" fill="#231f20"></rect><defs><linearGradient id="grad1_0" x1="33.3%" y1="0%" x2="100%" y2="100%"><stop offset="20%" stop-color="#231f20" stop-opacity="1"></stop><stop offset="80%" stop-color="#231f20" stop-opacity="1"></stop></linearGradient></defs><defs><linearGradient id="grad2_0" x1="0%" y1="0%" x2="66.7%" y2="100%"><stop offset="20%" stop-color="#231f20" stop-opacity="1"></stop><stop offset="80%" stop-color="#231f20" stop-opacity="1"></stop></linearGradient></defs><g transform="translate(900, 0)"><path d="M0 486.7C-64.5 468 -129 449.3 -170.3 411.1C-211.6 372.9 -229.7 315.2 -279.3 279.3C-328.9 243.4 -409.9 229.2 -449.7 186.3C-489.5 143.3 -488.1 71.7 -486.7 0L0 0Z" fill="#302b2c"></path></g><g transform="translate(0, 600)"><path d="M0 -486.7C70.2 -486.9 140.4 -487.1 186.3 -449.7C232.1 -412.3 253.7 -337.3 286.4 -286.4C319.1 -235.5 362.9 -208.7 398.2 -164.9C433.4 -121.2 460.1 -60.6 486.7 0L0 0Z" fill="#302b2c"></path></g></svg>